<svg xmlns="http://www.w3.org/2000/svg" width="24" height="24" viewBox="0 0 24 24" fill="none">
    <path d="M12 15C14.0711 15 15.75 13.3211 15.75 11.25C15.75 9.17893 14.0711 7.5 12 7.5C9.92893 7.5 8.25 9.17893 8.25 11.25C8.25 13.3211 9.92893 15 12 15Z" stroke="#0C2752" stroke-miterlimit="10"/>
    <path d="M5.98047 18.6937C6.54476 17.5823 7.40581 16.6487 8.46816 15.9967C9.53052 15.3446 10.7527 14.9994 11.9992 14.9994C13.2457 14.9994 14.4679 15.3446 15.5303 15.9967C16.5926 16.6487 17.4537 17.5823 18.018 18.6937" stroke="#0C2752" stroke-linecap="round" stroke-linejoin="round"/>
    <path d="M16.5 5.25H21" stroke="#0C2752" stroke-linecap="round" stroke-linejoin="round"/>
    <path d="M18.75 3V7.5" stroke="#0C2752" stroke-linecap="round" stroke-linejoin="round"/>
    <path d="M20.8875 10.5844C20.9633 11.0524 21.0009 11.5258 21 12C21 13.78 20.4722 15.5201 19.4832 17.0001C18.4943 18.4802 17.0887 19.6337 15.4442 20.3149C13.7996 20.9961 11.99 21.1743 10.2442 20.8271C8.49836 20.4798 6.89472 19.6226 5.63604 18.3639C4.37737 17.1053 3.5202 15.5016 3.17294 13.7558C2.82567 12.01 3.0039 10.2004 3.68509 8.55584C4.36628 6.9113 5.51983 5.50569 6.99987 4.51676C8.47991 3.52783 10.22 2.99999 12 2.99999C12.4741 2.99906 12.9476 3.03668 13.4156 3.11249" stroke="#0C2752" stroke-linecap="round" stroke-linejoin="round"/>
</svg>
